<?xml version="1.0" standalone="no"?>
<!DOCTYPE svg PUBLIC "-//W3C//DTD SVG 1.1//EN" "http://www.w3.org/Graphics/SVG/1.1/DTD/svg11.dtd" >
<svg xmlns="http://www.w3.org/2000/svg">
<metadata></metadata>
<defs>
<font id="homestead_regularregular" horiz-adv-x="1273" >
<font-face units-per-em="2048" ascent="1536" descent="-512" />
<missing-glyph horiz-adv-x="702" />
<glyph horiz-adv-x="0" />
<glyph unicode="&#xd;" horiz-adv-x="702" />
<glyph unicode=" "  horiz-adv-x="702" />
<glyph unicode="&#x09;" horiz-adv-x="702" />
<glyph unicode="&#xa0;" horiz-adv-x="702" />
<glyph unicode="!" horiz-adv-x="415" d="M0 0v287h287v-287h-287zM0 430v1004h287v-1004h-287z" />
<glyph unicode="&#x22;" horiz-adv-x="1003" d="M0 1161l143 430h303l-143 -430h-303zM444 1161l144 430h303l-143 -430h-304z" />
<glyph unicode="#" horiz-adv-x="1560" d="M0 287v286h287v287h-287v287h287v287h286v-287h287v287h287v-287h287v-287h-287v-287h287v-286h-287v-287h-287v287h-287v-287h-286v287h-287zM573 573h287v287h-287v-287z" />
<glyph unicode="$" horiz-adv-x="1206" d="M-14 1032q0 78 28.5 147.5t80.5 124t123 90.5t155 48v135h286v-156q63 -18 115 -49v62h287v-430h-289q-35 39 -67.5 68.5t-69.5 49t-81 29.5t-103 10q-86 0 -132.5 -41t-46.5 -88q0 -133 287 -176q178 -27 283.5 -87t161 -131t71 -139.5t15.5 -111.5q0 -82 -33 -152.5 t-90.5 -124t-136 -86t-171.5 -38.5v-129h-286v168q-23 10 -44.5 19t-41.5 19v-63h-287v430h287q37 -41 72.5 -70.5t73.5 -49t84 -29t106 -9.5q78 0 129 32t51 83q0 43 -26.5 75t-68.5 54.5t-92.5 35.5t-99.5 21q-174 27 -278.5 82.5t-161 121t-73.5 134t-17 121.5z" />
<glyph unicode="%" horiz-adv-x="1667" d="M0 1141q0 66 24.5 123t67.5 99t99.5 66.5t121.5 24.5q66 0 123.5 -24.5t100.5 -66.5t67.5 -99t24.5 -123t-24.5 -123t-67.5 -99t-100.5 -67t-123.5 -25t-122 25t-99 67t-67.5 99t-24.5 123zM121 0l956 1434h344l-954 -1434h-346zM215 1141q0 -41 28.5 -70t69.5 -29t71 29 t30 70t-30 69.5t-71 28.5t-69.5 -28.5t-28.5 -69.5zM920 293q0 63 24.5 120.5t67.5 100.5t100 67.5t123 24.5q63 0 120.5 -24.5t100.5 -67.5t67.5 -100.5t24.5 -120.5q0 -66 -24.5 -123t-67.5 -100t-100.5 -68t-120.5 -25q-66 0 -123 25t-100 68t-67.5 100t-24.5 123z M1135 293q0 -41 29.5 -70.5t70.5 -29.5t69.5 29.5t28.5 70.5t-28.5 69.5t-69.5 28.5t-70.5 -28.5t-29.5 -69.5z" />
<glyph unicode="&#x26;" d="M0 430q0 84 28.5 156.5t82.5 130.5q-53 57 -82 130t-29 157q0 88 34 166.5t92 137t136 92.5t168 34h143v-287h-143q-59 0 -101 -42t-42 -101t42 -101.5t101 -42.5h287v144h287v-144h143v-287h-143v-143q0 -59 41.5 -101t101.5 -42v-287q-84 0 -156.5 28.5t-130.5 82.5 q-57 -53 -130 -82t-157 -29h-143q-90 0 -168 34t-136 92t-92 136t-34 168zM287 430q0 -59 42 -101t101 -42h143q59 0 101.5 42t42.5 101v143h-287q-59 0 -101 -42t-42 -101z" />
<glyph unicode="'" horiz-adv-x="561" d="M0 1161l143 430h303l-143 -430h-303z" />
<glyph unicode="(" horiz-adv-x="544" d="M0 158v1003q0 88 34 167t92 137.5t136 92t168 33.5v-286q-59 0 -101 -42t-42 -102v-1003q0 -59 42 -101.5t101 -42.5v-286q-90 0 -168 33.5t-136 92t-92 136.5t-34 168z" />
<glyph unicode=")" horiz-adv-x="544" d="M0 14q59 0 101 42t42 102v1003q0 59 -42 101.5t-101 42.5v286q88 0 167 -33.5t137 -92t92 -137.5t34 -167v-1003q0 -90 -34 -168t-92 -136.5t-137 -92t-167 -33.5v286z" />
<glyph unicode="*" horiz-adv-x="690" d="M0 1065l141 82l-141 82l72 123l141 -80v162h143v-162l140 80l71 -123l-139 -82l139 -82l-71 -123l-140 80v-162h-143v162l-141 -80z" />
<glyph unicode="+" horiz-adv-x="989" d="M0 573v287h287v287h286v-287h287v-287h-287v-286h-286v286h-287z" />
<glyph unicode="," horiz-adv-x="561" d="M0 -143l143 430h303l-143 -430h-303z" />
<glyph unicode="-" horiz-adv-x="989" d="M0 573v287h860v-287h-860z" />
<glyph unicode="." horiz-adv-x="458" d="M0 172q0 72 50 122t122 50t122 -50t50 -122t-50 -122t-122 -50t-122 50t-50 122z" />
<glyph unicode="/" horiz-adv-x="989" d="M0 -129l573 1720h304l-574 -1720h-303z" />
<glyph unicode="0" horiz-adv-x="1118" d="M0 430v574q0 88 34 166.5t92 137t136 92.5t168 34h143q88 0 167 -34t137.5 -92.5t92.5 -137t34 -166.5v-574q0 -90 -34 -168t-92.5 -136t-137 -92t-167.5 -34h-143q-90 0 -168 34t-136 92t-92 136t-34 168zM287 430q0 -59 42 -101t101 -42h143q59 0 101.5 42t42.5 101 v574q0 59 -42 101t-102 42h-143q-59 0 -101 -42t-42 -101v-574z" />
<glyph unicode="1" horiz-adv-x="702" d="M0 0v287h143v860h-143v287h430v-1147h143v-287h-573z" />
<glyph unicode="2" horiz-adv-x="1132" d="M0 0v289l604 561q43 39 65.5 63.5t33 41t12.5 27.5t2 22q0 59 -42 101t-102 42h-143q-59 0 -101 -42t-42 -101h-287q0 88 34 166.5t92 137t136 92.5t168 34h143q88 0 167 -34t137.5 -92.5t92.5 -137t34 -166.5q0 -55 -13.5 -101.5t-39 -88.5t-63.5 -84t-89 -89 q-16 -16 -52 -49t-86.5 -80t-112 -104.5t-130.5 -120.5h299v143h287v-430h-1004z" />
<glyph unicode="3" horiz-adv-x="1118" d="M0 430h287q0 -59 42 -101t101 -42h143q59 0 101.5 42t42.5 101t-42 101t-102 42h-143v287h143q59 0 101.5 42t42.5 102q0 59 -42 101t-102 42h-143q-59 0 -101 -42t-42 -101h-287q0 88 34 166.5t92 137t136 92.5t168 34h143q88 0 167 -34t137.5 -92.5t92.5 -137 t34 -166.5q0 -84 -29 -157t-82 -130q53 -57 82 -130t29 -157q0 -90 -34 -168t-92.5 -136t-137 -92t-167.5 -34h-143q-90 0 -168 34t-136 92t-92 136t-34 168z" />
<glyph unicode="4" horiz-adv-x="1132" d="M0 430v289l373 715h323l-374 -717h251v287h287v-287h144v-287h-144v-143h144v-287h-574v287h143v143h-573z" />
<glyph unicode="5" horiz-adv-x="1077" d="M0 430h287q0 -59 42 -101t101 -42h72q72 0 122 50t50 122t-50.5 122t-121.5 50h-502v803h932v-430h-287v143h-358v-229h215q94 0 178 -36t146.5 -98.5t98.5 -146.5t36 -178q0 -96 -36 -179t-98.5 -145.5t-146.5 -98.5t-178 -36h-72q-90 0 -168 34t-136 92t-92 136 t-34 168z" />
<glyph unicode="6" horiz-adv-x="1118" d="M0 430v574q0 88 34 166.5t92 137t136 92.5t168 34h143q88 0 167 -34t137.5 -92.5t92.5 -137t34 -166.5h-287q0 59 -42 101t-102 42h-143q-59 0 -101 -42t-42 -101v-168q68 25 143 24h143q88 0 167 -33.5t137.5 -92t92.5 -137.5t34 -167q0 -90 -34 -168t-92.5 -136 t-137 -92t-167.5 -34h-143q-90 0 -168 34t-136 92t-92 136t-34 168zM287 430q0 -59 42 -101t101 -42h143q59 0 101.5 42t42.5 101t-42 101t-102 42h-143q-59 0 -101 -42t-42 -101z" />
<glyph unicode="7" horiz-adv-x="1118" d="M0 1004v430h1034l-534 -1434h-307l430 1147h-336v-143h-287z" />
<glyph unicode="8" horiz-adv-x="1118" d="M0 430q0 84 28.5 156.5t82.5 130.5q-53 57 -82 130t-29 157q0 88 34 166.5t92 137t136 92.5t168 34h143q88 0 167 -34t137.5 -92.5t92.5 -137t34 -166.5q0 -84 -29 -157t-82 -130q53 -57 82 -130t29 -157q0 -90 -34 -168t-92.5 -136t-137 -92t-167.5 -34h-143 q-90 0 -168 34t-136 92t-92 136t-34 168zM287 430q0 -59 42 -101t101 -42h143q59 0 101.5 42t42.5 101t-42 101t-102 42h-143q-59 0 -101 -42t-42 -101zM287 1004q0 -59 42 -101.5t101 -42.5h143q59 0 101.5 42t42.5 102q0 59 -42 101t-102 42h-143q-59 0 -101 -42t-42 -101 z" />
<glyph unicode="9" horiz-adv-x="1118" d="M0 430h287q0 -59 42 -101t101 -42h143q59 0 101.5 42t42.5 101v168q-68 -25 -144 -25h-143q-90 0 -168 34t-136 92.5t-92 136t-34 168.5q0 88 34 166.5t92 137t136 92.5t168 34h143q88 0 167 -34t137.5 -92.5t92.5 -137t34 -166.5v-574q0 -90 -34 -168t-92.5 -136 t-137 -92t-167.5 -34h-143q-90 0 -168 34t-136 92t-92 136t-34 168zM287 1004q0 -59 42 -101.5t101 -42.5h143q59 0 101.5 42t42.5 102q0 59 -42 101t-102 42h-143q-59 0 -101 -42t-42 -101z" />
<glyph unicode=":" horiz-adv-x="458" d="M0 430q0 72 50 122t122 50t122 -50t50 -122t-50 -122t-122 -50t-122 50t-50 122zM0 1004q0 72 50 122t122 50t122 -50.5t50 -121.5q0 -72 -50 -122.5t-122 -50.5t-122 50.5t-50 122.5z" />
<glyph unicode=";" horiz-adv-x="561" d="M0 -143l143 430h303l-143 -430h-303zM100 717q0 72 50 122t122 50t122 -50.5t50 -121.5q0 -72 -50 -122t-122 -50t-122 50t-50 122z" />
<glyph unicode="&#x3c;" horiz-adv-x="989" d="M0 541v321l860 430v-321l-541 -269l541 -270v-321z" />
<glyph unicode="=" d="M0 287v286h1147v-286h-1147zM0 717v287h1147v-287h-1147z" />
<glyph unicode="&#x3e;" horiz-adv-x="989" d="M0 111v321l539 270l-539 269v321l860 -430v-321z" />
<glyph unicode="?" horiz-adv-x="1118" d="M0 1004q0 88 34 166.5t92 137t136 92.5t168 34h143q88 0 167 -34t137.5 -92.5t92.5 -137t34 -166.5v-144q0 -70 -27 -131t-73 -107.5t-107.5 -73t-130.5 -26.5q-20 0 -35 -14t-15 -35v-43h-286v43q0 70 26.5 131.5t72.5 106.5t106.5 71.5t130.5 26.5q23 0 37 14.5 t14 36.5v144q0 59 -42 101t-102 42h-143q-59 0 -101 -42t-42 -101h-287zM330 0v287h286v-287h-286z" />
<glyph unicode="@" horiz-adv-x="1538" d="M0 717q0 147 56.5 278t153.5 228.5t228 154t279 56.5q147 0 278 -56.5t228.5 -154t154 -228.5t56.5 -278q0 -66 -25 -123t-68 -99t-100 -67t-121 -25q-59 0 -112.5 20.5t-94.5 57.5q-41 -37 -94 -57.5t-112 -20.5q-66 0 -123.5 25t-100.5 67t-67.5 99t-24.5 123 q0 63 24.5 120.5t67.5 100.5t100.5 67.5t123.5 24.5q63 0 120.5 -24.5t100.5 -67.5t67.5 -100.5t24.5 -120.5q0 -41 29.5 -70t70.5 -29t70 29t29 70q0 104 -40 195.5t-107.5 159t-159 107.5t-195.5 40t-195.5 -40t-159 -107.5t-107.5 -159t-40 -195.5t40 -195.5t107.5 -159 t158.5 -107.5t196 -40h416v-215h-416q-147 0 -278.5 56.5t-228.5 153.5t-153.5 228t-56.5 279zM606 717q0 -41 30 -70t71 -29t69.5 29t28.5 70t-28.5 69.5t-69.5 28.5t-71 -28.5t-30 -69.5z" />
<glyph unicode="A" horiz-adv-x="1531" d="M0 0v287h139l344 1147h439l344 -1147h139v-287h-574v287h136l-43 143h-443l-43 -143h135v-287h-573zM567 717h271l-129 430h-13z" />
<glyph unicode="B" d="M0 0v287h143v860h-143v287h717q86 0 161.5 -33t132 -89.5t89.5 -132t33 -161.5q0 -76 -26 -143.5t-71 -122.5q59 -59 92 -138t33 -170q0 -92 -34.5 -173t-95 -141t-141.5 -95t-173 -35h-717zM430 287h287q66 0 111.5 46t45.5 111q0 66 -46 112t-111 46h-287v-315z M430 889h287q53 0 91 38t38 91t-38 91t-91 38h-287v-258z" />
<glyph unicode="C" horiz-adv-x="1261" d="M0 430v574q0 88 34 166.5t92 137t136 92.5t168 34h287q88 0 167 -34t137 -92.5t92 -137t34 -166.5v-72h-287v72q0 59 -42 101t-101 42h-287q-59 0 -101 -42t-42 -101v-574q0 -59 42 -101t101 -42h287q59 0 101 42t42 101v72h287v-72q0 -90 -34 -168t-92 -136t-137 -92 t-167 -34h-287q-90 0 -168 34t-136 92t-92 136t-34 168z" />
<glyph unicode="D" horiz-adv-x="1261" d="M0 0v287h143v860h-143v287h573q119 0 223.5 -45.5t182.5 -123t123 -182t45 -223.5v-287q0 -119 -45 -223t-123 -182t-182.5 -123t-223.5 -45h-573zM430 287h143q59 0 111.5 22.5t91.5 61.5t61.5 91t22.5 111v287q0 59 -22.5 111.5t-61.5 91.5t-91 61.5t-112 22.5h-143 v-860z" />
<glyph unicode="E" horiz-adv-x="1132" d="M0 0v287h143v860h-143v287h1004v-430h-287v143h-287v-287h287v-287h-287v-286h287v143h287v-430h-1004z" />
<glyph unicode="F" horiz-adv-x="1132" d="M0 0v287h143v860h-143v287h1004v-430h-287v143h-287v-287h287v-287h-287v-286h143v-287h-573z" />
<glyph unicode="G" horiz-adv-x="1261" d="M0 430v574q0 88 34 166.5t92 137t136 92.5t168 34h287q88 0 167 -34t137 -92.5t92 -137t34 -166.5v-72h-287v72q0 59 -42 101t-101 42h-287q-59 0 -101 -42t-42 -101v-574q0 -59 42 -101t101 -42h287q59 0 101 42t42 101v57h-287v287h574v-344q0 -90 -34 -168t-92 -136 t-137 -92t-167 -34h-287q-90 0 -168 34t-136 92t-92 136t-34 168z" />
<glyph unicode="H" horiz-adv-x="1402" d="M0 0v287h143v860h-143v287h573v-287h-143v-287h416v287h-144v287h574v-287h-143v-860h143v-287h-574v287h144v286h-416v-286h143v-287h-573z" />
<glyph unicode="I" horiz-adv-x="702" d="M0 0v287h143v860h-143v287h573v-287h-143v-860h143v-287h-573z" />
<glyph unicode="J" horiz-adv-x="1132" d="M0 430v143h287v-143q0 -59 42 -101t101 -42t101 42t42 101v717h-143v287h574v-287h-144v-717q0 -90 -33.5 -168t-92 -136t-137.5 -92t-167 -34q-90 0 -168 34t-136 92t-92 136t-34 168z" />
<glyph unicode="K" horiz-adv-x="1431" d="M0 0v287h143v860h-143v287h559v-287h-129v-350l361 350h-74v287h588v-287h-103l-346 -336l313 -524h136v-287h-574v287h105l-191 319l-215 -209v-110h143v-287h-573z" />
<glyph unicode="L" horiz-adv-x="1132" d="M0 0v287h143v860h-143v287h573v-287h-143v-860h287v143h287v-430h-1004z" />
<glyph unicode="M" horiz-adv-x="1560" d="M0 0v287h143v860h-143v287h434l283 -449l282 449h435v-287h-144v-860h144v-287h-574v287h144v614l-287 -452l-287 452v-614h143v-287h-573z" />
<glyph unicode="N" horiz-adv-x="1548" d="M0 0v287h143v860h-143v287h430l559 -893v606h-143v287h573v-287h-143v-1147h-287l-559 893v-606h143v-287h-573z" />
<glyph unicode="O" d="M0 430v574q0 88 34 166.5t92 137t136 92.5t168 34h287q88 0 167 -34t137 -92.5t92 -137t34 -166.5v-574q0 -90 -34 -168t-92 -136t-137 -92t-167 -34h-287q-90 0 -168 34t-136 92t-92 136t-34 168zM287 430q0 -59 42 -101t101 -42h287q59 0 101 42t42 101v574 q0 59 -42 101t-101 42h-287q-59 0 -101 -42t-42 -101v-574z" />
<glyph unicode="P" horiz-adv-x="1247" d="M0 0v287h143v860h-143v287h674q94 0 178 -36t146.5 -98.5t98.5 -146.5t36 -178q0 -96 -36 -179t-98.5 -145.5t-146.5 -98.5t-178 -36h-244v-229h143v-287h-573zM430 803h244q72 0 122 50t50 122t-50.5 122t-121.5 50h-244v-344z" />
<glyph unicode="Q" horiz-adv-x="1261" d="M0 430v574q0 88 34 166.5t92 137t136 92.5t168 34h287q88 0 167 -34t137 -92.5t92 -137t34 -166.5v-574q0 -90 -34 -168t-92 -136t-137 -92t-167 -34v-158h-287v158q-90 0 -168 34t-136 92t-92 136t-34 168zM287 430q0 -59 42 -101t101 -42h287q59 0 101 42t42 101v574 q0 59 -42 101t-101 42h-287q-59 0 -101 -42t-42 -101v-574z" />
<glyph unicode="R" horiz-adv-x="1402" d="M0 0v287h143v860h-143v287h680q94 -2 176 -39t143.5 -98.5t97.5 -144.5t36 -177q0 -111 -47.5 -203t-124.5 -156l190 -329h125v-287h-574v287h117l-131 229h-258v-229h143v-287h-573zM430 803h244q72 0 122 50t50 122t-50.5 122t-121.5 50h-244v-344z" />
<glyph unicode="S" horiz-adv-x="1206" d="M-14 1032q0 88 35.5 164t99 132t147.5 88t183 32q104 0 182 -20.5t141 -55.5v62h287v-430h-289q-35 39 -67.5 68.5t-69.5 49t-81 29.5t-103 10q-86 0 -132.5 -41t-46.5 -88q0 -133 287 -176q178 -27 283.5 -87t161 -131t71 -139.5t15.5 -111.5q0 -86 -36 -159.5 t-98.5 -127t-147.5 -84t-185 -30.5q-104 0 -187.5 21.5t-148.5 55.5v-63h-287v430h287q37 -41 72.5 -70.5t73.5 -49t84 -29t106 -9.5q78 0 129 32t51 83q0 43 -26.5 75t-68.5 54.5t-92.5 35.5t-99.5 21q-174 27 -278.5 82.5t-161 121t-73.5 134t-17 121.5z" />
<glyph unicode="T" d="M0 1004v430h1147v-430h-287v143h-143v-860h143v-287h-573v287h143v860h-143v-143h-287z" />
<glyph unicode="U" horiz-adv-x="1476" d="M0 1147v287h573v-287h-143v-717q0 -59 42 -101t101 -42h201q59 0 101.5 42t42.5 101v717h-144v287h574v-287h-144v-717q0 -90 -33.5 -168t-92 -136t-137.5 -92t-167 -34h-201q-90 0 -167.5 34t-136 92t-92.5 136t-34 168v717h-143z" />
<glyph unicode="V" horiz-adv-x="1476" d="M0 1147v287h573v-287h-135l236 -727l235 727h-135v287h574v-287h-138l-372 -1147h-328l-373 1147h-137z" />
<glyph unicode="W" horiz-adv-x="1851" d="M0 1147v287h573v-287h-139l166 -729l260 606l258 -606l168 729h-139v287h573v-287h-141l-262 -1147h-330l-127 295l-127 -295h-332l-260 1147h-141z" />
<glyph unicode="X" horiz-adv-x="1402" d="M0 0v287h117l338 422l-349 438h-106v287h573v-287h-100l164 -207l166 207h-101v287h574v-287h-107l-348 -438l336 -422h119v-287h-574v287h89l-154 192l-154 -192h90v-287h-573z" />
<glyph unicode="Y" horiz-adv-x="1464" d="M0 1147v287h573v-287h-108l201 -293l202 293h-108v287h573v-287h-116l-408 -590v-270h143v-287h-573v287h143v270l-405 590h-117z" />
<glyph unicode="Z" horiz-adv-x="1347" d="M-14 0l729 1147h-428v-143h-287v430h1235l-727 -1147h424v143h287v-430h-1233z" />
<glyph unicode="[" horiz-adv-x="544" d="M0 -272v1863h430v-286h-143v-1291h143v-286h-430z" />
<glyph unicode="\" horiz-adv-x="991" d="M0 1591h303l574 -1720h-304z" />
<glyph unicode="]" horiz-adv-x="544" d="M0 14h143v1291h-143v286h430v-1863h-430v286z" />
<glyph unicode="^" horiz-adv-x="1308" d="M0 575l430 861h320l430 -861h-320l-270 541l-271 -541h-319z" />
<glyph unicode="_" d="M0 0h1147v-287h-1147v287z" />
<glyph unicode="`" horiz-adv-x="458" d="M-193 1434h347l190 -287h-344z" />
<glyph unicode="a" horiz-adv-x="1531" d="M0 0v287h139l344 1147h439l344 -1147h139v-287h-574v287h136l-43 143h-443l-43 -143h135v-287h-573zM567 717h271l-129 430h-13z" />
<glyph unicode="b" d="M0 0v287h143v860h-143v287h717q86 0 161.5 -33t132 -89.5t89.5 -132t33 -161.5q0 -76 -26 -143.5t-71 -122.5q59 -59 92 -138t33 -170q0 -92 -34.5 -173t-95 -141t-141.5 -95t-173 -35h-717zM430 287h287q66 0 111.5 46t45.5 111q0 66 -46 112t-111 46h-287v-315z M430 889h287q53 0 91 38t38 91t-38 91t-91 38h-287v-258z" />
<glyph unicode="c" horiz-adv-x="1261" d="M0 430v574q0 88 34 166.5t92 137t136 92.5t168 34h287q88 0 167 -34t137 -92.5t92 -137t34 -166.5v-72h-287v72q0 59 -42 101t-101 42h-287q-59 0 -101 -42t-42 -101v-574q0 -59 42 -101t101 -42h287q59 0 101 42t42 101v72h287v-72q0 -90 -34 -168t-92 -136t-137 -92 t-167 -34h-287q-90 0 -168 34t-136 92t-92 136t-34 168z" />
<glyph unicode="d" horiz-adv-x="1261" d="M0 0v287h143v860h-143v287h573q119 0 223.5 -45.5t182.5 -123t123 -182t45 -223.5v-287q0 -119 -45 -223t-123 -182t-182.5 -123t-223.5 -45h-573zM430 287h143q59 0 111.5 22.5t91.5 61.5t61.5 91t22.5 111v287q0 59 -22.5 111.5t-61.5 91.5t-91 61.5t-112 22.5h-143 v-860z" />
<glyph unicode="e" horiz-adv-x="1132" d="M0 0v287h143v860h-143v287h1004v-430h-287v143h-287v-287h287v-287h-287v-286h287v143h287v-430h-1004z" />
<glyph unicode="f" horiz-adv-x="1132" d="M0 0v287h143v860h-143v287h1004v-430h-287v143h-287v-287h287v-287h-287v-286h143v-287h-573z" />
<glyph unicode="g" horiz-adv-x="1261" d="M0 430v574q0 88 34 166.5t92 137t136 92.5t168 34h287q88 0 167 -34t137 -92.5t92 -137t34 -166.5v-72h-287v72q0 59 -42 101t-101 42h-287q-59 0 -101 -42t-42 -101v-574q0 -59 42 -101t101 -42h287q59 0 101 42t42 101v57h-287v287h574v-344q0 -90 -34 -168t-92 -136 t-137 -92t-167 -34h-287q-90 0 -168 34t-136 92t-92 136t-34 168z" />
<glyph unicode="h" horiz-adv-x="1402" d="M0 0v287h143v860h-143v287h573v-287h-143v-287h416v287h-144v287h574v-287h-143v-860h143v-287h-574v287h144v286h-416v-286h143v-287h-573z" />
<glyph unicode="i" horiz-adv-x="702" d="M0 0v287h143v860h-143v287h573v-287h-143v-860h143v-287h-573z" />
<glyph unicode="j" horiz-adv-x="1132" d="M0 430v143h287v-143q0 -59 42 -101t101 -42t101 42t42 101v717h-143v287h574v-287h-144v-717q0 -90 -33.5 -168t-92 -136t-137.5 -92t-167 -34q-90 0 -168 34t-136 92t-92 136t-34 168z" />
<glyph unicode="k" horiz-adv-x="1431" d="M0 0v287h143v860h-143v287h559v-287h-129v-350l361 350h-74v287h588v-287h-103l-346 -336l313 -524h136v-287h-574v287h105l-191 319l-215 -209v-110h143v-287h-573z" />
<glyph unicode="l" horiz-adv-x="1132" d="M0 0v287h143v860h-143v287h573v-287h-143v-860h287v143h287v-430h-1004z" />
<glyph unicode="m" horiz-adv-x="1560" d="M0 0v287h143v860h-143v287h434l283 -449l282 449h435v-287h-144v-860h144v-287h-574v287h144v614l-287 -452l-287 452v-614h143v-287h-573z" />
<glyph unicode="n" horiz-adv-x="1548" d="M0 0v287h143v860h-143v287h430l559 -893v606h-143v287h573v-287h-143v-1147h-287l-559 893v-606h143v-287h-573z" />
<glyph unicode="o" d="M0 430v574q0 88 34 166.5t92 137t136 92.5t168 34h287q88 0 167 -34t137 -92.5t92 -137t34 -166.5v-574q0 -90 -34 -168t-92 -136t-137 -92t-167 -34h-287q-90 0 -168 34t-136 92t-92 136t-34 168zM287 430q0 -59 42 -101t101 -42h287q59 0 101 42t42 101v574 q0 59 -42 101t-101 42h-287q-59 0 -101 -42t-42 -101v-574z" />
<glyph unicode="p" horiz-adv-x="1247" d="M0 0v287h143v860h-143v287h674q94 0 178 -36t146.5 -98.5t98.5 -146.5t36 -178q0 -96 -36 -179t-98.5 -145.5t-146.5 -98.5t-178 -36h-244v-229h143v-287h-573zM430 803h244q72 0 122 50t50 122t-50.5 122t-121.5 50h-244v-344z" />
<glyph unicode="q" horiz-adv-x="1261" d="M0 430v574q0 88 34 166.5t92 137t136 92.5t168 34h287q88 0 167 -34t137 -92.5t92 -137t34 -166.5v-574q0 -90 -34 -168t-92 -136t-137 -92t-167 -34v-158h-287v158q-90 0 -168 34t-136 92t-92 136t-34 168zM287 430q0 -59 42 -101t101 -42h287q59 0 101 42t42 101v574 q0 59 -42 101t-101 42h-287q-59 0 -101 -42t-42 -101v-574z" />
<glyph unicode="r" horiz-adv-x="1402" d="M0 0v287h143v860h-143v287h680q94 -2 176 -39t143.5 -98.5t97.5 -144.5t36 -177q0 -111 -47.5 -203t-124.5 -156l190 -329h125v-287h-574v287h117l-131 229h-258v-229h143v-287h-573zM430 803h244q72 0 122 50t50 122t-50.5 122t-121.5 50h-244v-344z" />
<glyph unicode="s" horiz-adv-x="1206" d="M-14 1032q0 88 35.5 164t99 132t147.5 88t183 32q104 0 182 -20.5t141 -55.5v62h287v-430h-289q-35 39 -67.5 68.5t-69.5 49t-81 29.5t-103 10q-86 0 -132.5 -41t-46.5 -88q0 -133 287 -176q178 -27 283.5 -87t161 -131t71 -139.5t15.5 -111.5q0 -86 -36 -159.5 t-98.5 -127t-147.5 -84t-185 -30.5q-104 0 -187.5 21.5t-148.5 55.5v-63h-287v430h287q37 -41 72.5 -70.5t73.5 -49t84 -29t106 -9.5q78 0 129 32t51 83q0 43 -26.5 75t-68.5 54.5t-92.5 35.5t-99.5 21q-174 27 -278.5 82.5t-161 121t-73.5 134t-17 121.5z" />
<glyph unicode="t" d="M0 1004v430h1147v-430h-287v143h-143v-860h143v-287h-573v287h143v860h-143v-143h-287z" />
<glyph unicode="u" horiz-adv-x="1476" d="M0 1147v287h573v-287h-143v-717q0 -59 42 -101t101 -42h201q59 0 101.5 42t42.5 101v717h-144v287h574v-287h-144v-717q0 -90 -33.5 -168t-92 -136t-137.5 -92t-167 -34h-201q-90 0 -167.5 34t-136 92t-92.5 136t-34 168v717h-143z" />
<glyph unicode="v" horiz-adv-x="1476" d="M0 1147v287h573v-287h-135l236 -727l235 727h-135v287h574v-287h-138l-372 -1147h-328l-373 1147h-137z" />
<glyph unicode="w" horiz-adv-x="1851" d="M0 1147v287h573v-287h-139l166 -729l260 606l258 -606l168 729h-139v287h573v-287h-141l-262 -1147h-330l-127 295l-127 -295h-332l-260 1147h-141z" />
<glyph unicode="x" horiz-adv-x="1402" d="M0 0v287h117l338 422l-349 438h-106v287h573v-287h-100l164 -207l166 207h-101v287h574v-287h-107l-348 -438l336 -422h119v-287h-574v287h89l-154 192l-154 -192h90v-287h-573z" />
<glyph unicode="y" horiz-adv-x="1464" d="M0 1147v287h573v-287h-108l201 -293l202 293h-108v287h573v-287h-116l-408 -590v-270h143v-287h-573v287h143v270l-405 590h-117z" />
<glyph unicode="z" horiz-adv-x="1347" d="M-14 0l729 1147h-428v-143h-287v430h1235l-727 -1147h424v143h287v-430h-1233z" />
<glyph unicode="{" horiz-adv-x="690" d="M0 588v286q59 0 101 42t42 102v143q0 88 34 167t92.5 137.5t136 92t167.5 33.5v-286q-59 0 -101 -42t-42 -102v-143q0 -84 -28.5 -157t-82.5 -130q53 -57 82 -130t29 -157v-286q0 -59 42 -101.5t101 -42.5v-286q-90 0 -167.5 33.5t-136 92t-92.5 136.5t-34 168v286 q0 59 -42 101.5t-101 42.5z" />
<glyph unicode="|" horiz-adv-x="415" d="M0 -559v2294h287v-2294h-287z" />
<glyph unicode="}" horiz-adv-x="690" d="M0 14q59 0 101 42t42 102v286q0 84 29 157t82 130q-53 57 -82 130t-29 157v143q0 59 -42 101.5t-101 42.5v286q88 0 167 -33.5t137 -92t92 -137.5t34 -167v-143q0 -59 42 -101.5t101 -42.5v-286q-59 0 -101 -42t-42 -102v-286q0 -90 -34 -168t-92 -136.5t-137 -92 t-167 -33.5v286z" />
<glyph unicode="~" horiz-adv-x="989" d="M0 909v219q78 14 142.5 18.5t118.5 0.5t101.5 -13.5t90.5 -19.5t85 -18.5t89 -10.5t103 3.5t128 21.5l2 -8v-211q-57 -12 -106 -16.5t-92 -4.5q-78 0 -139.5 10.5t-116.5 24.5q-43 10 -85 18.5t-90.5 10.5t-103.5 -3t-127 -22z" />
<glyph unicode="&#xa1;" horiz-adv-x="415" d="M0 0v1004h287v-1004h-287zM0 1147v287h287v-287h-287z" />
<glyph unicode="&#xa2;" horiz-adv-x="1261" d="M0 717v287q0 88 34 166.5t92 137t136 92.5t168 34v143h287v-143q88 0 167 -34t137 -92.5t92 -137t34 -166.5h-287q0 59 -42 101t-101 42h-287q-59 0 -101 -42t-42 -101v-287q0 -59 42 -101.5t101 -42.5h287q59 0 101 42t42 102h287q0 -90 -34 -168t-92 -136.5t-137 -92 t-167 -33.5v-144h-287v144q-90 0 -168 33.5t-136 92t-92 136.5t-34 168z" />
<glyph unicode="&#xa3;" horiz-adv-x="989" d="M0 -8v293q80 16 143 18v199h-143v286h143v216q0 88 34 166.5t92.5 137t136 92.5t167.5 34h144v-287h-144q-59 0 -101 -42t-42 -101v-216h143v-286h-143v-226q8 -2 15.5 -4t15.5 -4q41 -10 82 -17t86 -10t99 2t122 21l10 2v-293q-109 -20 -198 -20q-80 0 -143.5 11 t-121.5 26l-82 16t-86 11t-99 -2t-122 -21z" />
<glyph unicode="&#xa5;" horiz-adv-x="1464" d="M0 1147v287h573v-287h-108l201 -293l202 293h-108v287h573v-287h-116l-297 -430h170v-215h-281v-144h281v-215h-281v-143h-287v143h-278v215h278v144h-278v215h170l-297 430h-117z" />
<glyph unicode="&#xa6;" horiz-adv-x="415" d="M0 444h287v-1003h-287v1003zM0 731v1004h287v-1004h-287z" />
<glyph unicode="&#xa7;" horiz-adv-x="1206" d="M-14 760q0 84 31.5 156.5t91.5 127.5q-39 37 -62.5 75t-37 76t-18.5 73t-5 65q0 88 35.5 164t99 132.5t147.5 88t183 31.5q104 0 182 -20.5t141 -55.5v62h287v-430h-289q-35 39 -67.5 68.5t-69.5 49t-81 29.5t-103 10q-86 0 -132.5 -41t-46.5 -88q0 -133 287 -176 q178 -27 283.5 -87t161 -131t71 -139.5t15.5 -111.5q0 -84 -33 -154.5t-92 -123.5q39 -41 63.5 -82t38.5 -80t18.5 -74t4.5 -59q0 -86 -36 -160t-98.5 -127t-147.5 -84t-185 -31q-104 0 -187.5 21.5t-148.5 56.5v-63h-287v430h287q37 -41 72.5 -71t73.5 -49.5t84 -28.5 t106 -9q78 0 129 31.5t51 83.5q0 43 -26.5 74.5t-68.5 54t-92.5 36t-99.5 21.5q-174 27 -278.5 82t-161 120.5t-73.5 134.5t-17 122zM258 782q-6 -31 10.5 -63.5t50 -60t83 -49t106.5 -34.5q57 -12 110.5 -10t94.5 16.5t68.5 38t33.5 54.5t-10.5 63.5t-50 61t-81.5 50 t-106 34.5q-57 10 -110.5 8t-95.5 -15.5t-69.5 -37t-33.5 -56.5z" />
<glyph unicode="&#xa8;" horiz-adv-x="860" d="M-20 1290q0 59 41.5 101.5t101.5 42.5q59 0 101 -42.5t42 -101.5t-42 -101t-101 -42t-101 42t-42 101zM424 1290q0 59 42 101.5t101 42.5t101.5 -42.5t42.5 -101.5t-42 -101t-102 -42q-59 0 -101 42t-42 101z" />
<glyph unicode="&#xa9;" horiz-adv-x="681" d="M0 1153q0 57 21.5 108.5t59.5 90.5t89.5 60.5t108.5 21.5t108 -21.5t90 -60.5t60.5 -90.5t21.5 -108.5t-21.5 -108.5t-60.5 -89t-90 -59.5t-108 -22t-108.5 22t-89.5 59.5t-59.5 89t-21.5 108.5zM57 1153q0 -45 17.5 -85t48.5 -70.5t71 -48t85 -17.5t86 17.5t71.5 48 t48 70.5t17.5 85t-17.5 86t-48 71.5t-71.5 48t-86 17.5t-85 -17.5t-71 -48t-48.5 -71.5t-17.5 -86zM172 1092v122q0 39 26.5 66t65.5 27h31q39 0 65.5 -27t26.5 -66v-14h-61v14q0 14 -9.5 22.5t-21.5 8.5h-31q-12 0 -21.5 -8t-9.5 -23v-122q0 -12 9.5 -21.5t21.5 -9.5h31 q12 0 21.5 9t9.5 22v16h61v-16q0 -37 -26.5 -65t-65.5 -28h-31q-39 0 -65.5 28t-26.5 65z" />
<glyph unicode="&#xab;" horiz-adv-x="1519" d="M0 705l705 704v-405l-299 -299l299 -299v-406zM702 705l705 704v-405l-299 -299l299 -299v-406z" />
<glyph unicode="&#xad;" horiz-adv-x="989" d="M0 573v287h860v-287h-860z" />
<glyph unicode="&#xae;" horiz-adv-x="681" d="M0 1153q0 57 21.5 108.5t59.5 90.5t89.5 60.5t108.5 21.5t108 -21.5t90 -60.5t60.5 -90.5t21.5 -108.5t-21.5 -108.5t-60.5 -89t-90 -59.5t-108 -22t-108.5 22t-89.5 59.5t-59.5 89t-21.5 108.5zM57 1153q0 -45 17.5 -85t48.5 -70.5t71 -48t85 -17.5t86 17.5t71.5 48 t48 70.5t17.5 85t-17.5 86t-48 71.5t-71.5 48t-86 17.5t-85 -17.5t-71 -48t-48.5 -71.5t-17.5 -86zM162 1016v57h28v174h-28v58h145q35 -4 58.5 -31t23.5 -62q0 -45 -33 -71l37 -68h25v-57h-115v57h25l-27 47h-51v-47h29v-57h-117zM250 1178h47q16 0 25.5 10t9.5 24 t-9.5 24.5t-25.5 10.5h-47v-69z" />
<glyph unicode="&#xb0;" horiz-adv-x="749" d="M0 1118q0 66 24.5 123t67.5 100t99 68t122 25t123.5 -25t100.5 -68t67.5 -100t24.5 -123t-24.5 -122t-67.5 -99t-100.5 -67.5t-123.5 -24.5t-122 24.5t-99 67.5t-67.5 99.5t-24.5 121.5zM215 1118q0 -41 28.5 -69.5t69.5 -28.5t71 28.5t30 69.5t-30 71t-71 30t-69.5 -30 t-28.5 -71z" />
<glyph unicode="&#xb1;" horiz-adv-x="989" d="M0 0v287h860v-287h-860zM0 717v287h287v286h286v-286h287v-287h-287v-287h-286v287h-287z" />
<glyph unicode="&#xb2;" horiz-adv-x="616" d="M0 715v145q51 47 100.5 92t90 84t70.5 66.5l42 38.5q41 39 48 52t7 24q0 29 -21.5 50t-49.5 21h-72q-29 0 -50.5 -21.5t-21.5 -49.5h-143q0 45 16.5 83.5t46 67.5t68.5 46.5t84 17.5h72q45 0 84 -17.5t67.5 -46.5t46 -67.5t17.5 -83.5q0 -55 -25.5 -95.5t-77.5 -87.5 q-16 -16 -68 -64t-122 -112h149v72h144v-215h-502z" />
<glyph unicode="&#xb3;" horiz-adv-x="616" d="M0 930h143q0 -31 21.5 -51.5t50.5 -20.5h72q29 0 50 20.5t21 51.5q0 29 -21.5 50t-49.5 21h-72v144h72q29 0 50 20.5t21 51.5q0 29 -21.5 50t-49.5 21h-72q-29 0 -50.5 -21.5t-21.5 -49.5h-143q0 43 16.5 82.5t46 68.5t68.5 46.5t84 17.5h72q45 0 84 -17.5t67.5 -46.5 t46 -68.5t17.5 -82.5q0 -84 -56 -144q55 -61 56 -143q0 -45 -17.5 -84t-46 -68.5t-67.5 -46t-84 -16.5h-72q-45 0 -84 16.5t-68.5 46t-46 68.5t-16.5 84z" />
<glyph unicode="&#xb4;" horiz-adv-x="649" d="M-2 1147l190 287h347l-193 -287h-344z" />
<glyph unicode="&#xb9;" horiz-adv-x="415" d="M0 715v143h72v430h-72v144h215v-574h72v-143h-287z" />
<glyph unicode="&#xbb;" horiz-adv-x="1519" d="M0 0v406l299 299l-299 299v405l705 -704zM702 0v406l299 299l-299 299v405l705 -704z" />
<glyph unicode="&#xbc;" horiz-adv-x="1347" d="M0 715v143h72v430h-72v144h215v-574h72v-143h-287zM2 0l956 1434h172l-956 -1434h-172zM717 215v143l186 359h162l-186 -359h125v144h143v-144h72v-143h-72v-72h72v-143h-287v143h72v72h-287z" />
<glyph unicode="&#xbd;" horiz-adv-x="1390" d="M0 715v143h72v430h-72v144h215v-574h72v-143h-287zM2 0l956 1434h172l-956 -1434h-172zM760 0v145q51 47 100 92.5t90 84t71 66.5t42 38q41 39 48 52.5t7 23.5q0 29 -21.5 50t-49.5 21h-72q-29 0 -50.5 -21.5t-21.5 -49.5h-143q0 45 16.5 84t46 67.5t68.5 46t84 17.5h72 q45 0 83.5 -17.5t67.5 -46t46.5 -67.5t17.5 -84q0 -55 -26 -95t-77 -88q-16 -16 -68.5 -64t-121.5 -112h149v72h144v-215h-502z" />
<glyph unicode="&#xbe;" horiz-adv-x="1490" d="M0 930h143q0 -31 21.5 -51.5t50.5 -20.5h72q29 0 50 20.5t21 51.5q0 29 -21.5 50t-49.5 21h-72v144h72q29 0 50 20.5t21 51.5q0 29 -21.5 50t-49.5 21h-72q-29 0 -50.5 -21.5t-21.5 -49.5h-143q0 43 16.5 82.5t46 68.5t68.5 46.5t84 17.5h72q45 0 84 -17.5t67.5 -46.5 t46 -68.5t17.5 -82.5q0 -84 -56 -144q55 -61 56 -143q0 -45 -17.5 -84t-46 -68.5t-67.5 -46t-84 -16.5h-72q-45 0 -84 16.5t-68.5 46t-46 68.5t-16.5 84zM145 0l957 1434h172l-957 -1434h-172zM860 215v143l187 359h161l-186 -359h125v144h143v-144h72v-143h-72v-72h72v-143 h-287v143h72v72h-287z" />
<glyph unicode="&#xbf;" horiz-adv-x="1118" d="M0 430v143q0 70 26.5 131.5t72.5 106.5t106.5 71.5t130.5 26.5q23 0 37 14.5t14 37.5v43h287v-43q0 -70 -26.5 -131.5t-73 -107.5t-107.5 -72.5t-131 -26.5q-20 0 -34.5 -14.5t-14.5 -35.5v-143q0 -59 42 -101t101 -42h143q59 0 101.5 42t42.5 101h287q0 -90 -34 -168 t-92.5 -136t-137 -92t-167.5 -34h-143q-90 0 -168 34t-136 92t-92 136t-34 168zM387 1147v287h287v-287h-287z" />
<glyph unicode="&#xc0;" horiz-adv-x="1531" d="M0 0v287h139l344 1147h439l344 -1147h139v-287h-574v287h136l-43 143h-443l-43 -143h135v-287h-573zM305 1844h347l190 -287h-344zM567 717h271l-129 430h-13z" />
<glyph unicode="&#xc1;" horiz-adv-x="1531" d="M0 0v287h139l344 1147h439l344 -1147h139v-287h-574v287h136l-43 143h-443l-43 -143h135v-287h-573zM496 1557l190 287h347l-193 -287h-344zM567 717h271l-129 430h-13z" />
<glyph unicode="&#xc2;" horiz-adv-x="1531" d="M0 0v287h139l344 1147h439l344 -1147h139v-287h-574v287h136l-43 143h-443l-43 -143h135v-287h-573zM242 1637l137 207h248l-138 -207h-247zM567 717h271l-129 430h-13zM786 1844h248l137 -207h-247z" />
<glyph unicode="&#xc3;" horiz-adv-x="1531" d="M0 0v287h139l344 1147h439l344 -1147h139v-287h-574v287h136l-43 143h-443l-43 -143h135v-287h-573zM270 1645v219q78 14 142.5 18.5t118.5 0t101.5 -13.5t90.5 -19t85 -18.5t89 -10.5t103 3t128 22l2 -9v-210q-57 -12 -106 -16.5t-92 -4.5q-78 0 -139.5 10.5 t-116.5 24.5q-43 10 -85 18t-90.5 10.5t-103.5 -3t-127 -21.5zM567 717h271l-129 430h-13z" />
<glyph unicode="&#xc4;" horiz-adv-x="1531" d="M0 0v287h139l344 1147h439l344 -1147h139v-287h-574v287h136l-43 143h-443l-43 -143h135v-287h-573zM338 1700q0 59 41.5 101.5t101.5 42.5q59 0 101 -42.5t42 -101.5t-42 -101t-101 -42t-101 42t-42 101zM567 717h271l-129 430h-13zM782 1700q0 59 42 101.5t101 42.5 t101.5 -42.5t42.5 -101.5t-42 -101t-102 -42q-59 0 -101 42t-42 101z" />
<glyph unicode="&#xc5;" horiz-adv-x="1531" d="M0 0h573v287h-135l43 143h443l43 -143h-136v-287h574v287h-139l-344 1147h-439l-344 -1147h-139v-287zM492 1698q0 45 16 84t46 67.5t69 46t84 17.5t83.5 -17.5t67.5 -46t46.5 -67.5t17.5 -84t-17.5 -84t-46.5 -68.5t-67.5 -46t-83.5 -16.5t-84 16.5t-69 46t-46 68.5 t-16 84zM567 717l129 430h13l129 -430h-271zM635 1698q0 -29 21.5 -50.5t50.5 -21.5t50 21.5t21 50.5t-21 50t-50 21t-50.5 -21.5t-21.5 -49.5z" />
<glyph unicode="&#xc6;" horiz-adv-x="1863" d="M0 0v287h139l344 1147h1266v-430h-287v143h-286v-287h286v-287h-286v-286h286v143h287v-430h-1004v287h144v143h-408l-43 -143h135v-287h-573zM567 717h322v430h-193z" />
<glyph unicode="&#xc7;" horiz-adv-x="1261" d="M0 430v574q0 88 34 166.5t92 137t136 92.5t168 34h287q88 0 167 -34t137 -92.5t92 -137t34 -166.5h-287q0 59 -42 101t-101 42h-287q-59 0 -101 -42t-42 -101v-574q0 -59 42 -101t101 -42h287q59 0 101 42t42 101h287q0 -90 -34 -168t-92 -136t-137 -92t-167 -34v-158 h-287v158q-90 0 -168 34t-136 92t-92 136t-34 168z" />
<glyph unicode="&#xc8;" horiz-adv-x="1132" d="M0 0v287h143v860h-143v287h1004v-430h-287v143h-287v-287h287v-287h-287v-286h287v143h287v-430h-1004zM106 1844h347l190 -287h-344z" />
<glyph unicode="&#xc9;" horiz-adv-x="1132" d="M0 0v287h143v860h-143v287h1004v-430h-287v143h-287v-287h287v-287h-287v-286h287v143h287v-430h-1004zM297 1557l190 287h347l-193 -287h-344z" />
<glyph unicode="&#xca;" horiz-adv-x="1132" d="M0 0v287h143v860h-143v287h1004v-430h-287v143h-287v-287h287v-287h-287v-286h287v143h287v-430h-1004zM74 1637l137 207h248l-138 -207h-247zM618 1844h248l137 -207h-247z" />
<glyph unicode="&#xcb;" horiz-adv-x="1132" d="M0 0v287h143v860h-143v287h1004v-430h-287v143h-287v-287h287v-287h-287v-286h287v143h287v-430h-1004zM130 1700q0 59 41.5 101.5t101.5 42.5q59 0 101 -42.5t42 -101.5t-42 -101t-101 -42t-101 42t-42 101zM574 1700q0 59 42 101.5t101 42.5t101.5 -42.5t42.5 -101.5 t-42 -101t-102 -42q-59 0 -101 42t-42 101z" />
<glyph unicode="&#xcc;" horiz-adv-x="702" d="M-109 1844h347l190 -287h-344zM0 0v287h143v860h-143v287h573v-287h-143v-860h143v-287h-573z" />
<glyph unicode="&#xcd;" horiz-adv-x="702" d="M0 0v287h143v860h-143v287h573v-287h-143v-860h143v-287h-573zM82 1557l190 287h347l-193 -287h-344z" />
<glyph unicode="&#xce;" horiz-adv-x="702" d="M-172 1637l137 207h248l-138 -207h-247zM0 0v287h143v860h-143v287h573v-287h-143v-860h143v-287h-573zM372 1844h248l137 -207h-247z" />
<glyph unicode="&#xcf;" horiz-adv-x="702" d="M-71 1700q0 59 41.5 101.5t101.5 42.5q59 0 101 -42.5t42 -101.5t-42 -101t-101 -42t-101 42t-42 101zM0 0v287h143v860h-143v287h573v-287h-143v-860h143v-287h-573zM373 1700q0 59 42 101.5t101 42.5t101.5 -42.5t42.5 -101.5t-42 -101t-102 -42q-59 0 -101 42t-42 101 z" />
<glyph unicode="&#xd1;" horiz-adv-x="1548" d="M0 0v287h143v860h-143v287h430l559 -893v606h-143v287h573v-287h-143v-1147h-287l-559 893v-606h143v-287h-573zM279 1645v219q78 14 142.5 18.5t118.5 0t101.5 -13.5t90.5 -19t85 -18.5t89 -10.5t103 3t128 22l2 -9v-210q-57 -12 -106 -16.5t-92 -4.5q-78 0 -139.5 10.5 t-116.5 24.5q-43 10 -85 18t-90.5 10.5t-103.5 -3t-127 -21.5z" />
<glyph unicode="&#xd2;" d="M0 430v574q0 88 34 166.5t92 137t136 92.5t168 34h287q88 0 167 -34t137 -92.5t92 -137t34 -166.5v-574q0 -90 -34 -168t-92 -136t-137 -92t-167 -34h-287q-90 0 -168 34t-136 92t-92 136t-34 168zM176 1844h347l190 -287h-344zM287 430q0 -59 42 -101t101 -42h287 q59 0 101 42t42 101v574q0 59 -42 101t-101 42h-287q-59 0 -101 -42t-42 -101v-574z" />
<glyph unicode="&#xd3;" d="M0 430v574q0 88 34 166.5t92 137t136 92.5t168 34h287q88 0 167 -34t137 -92.5t92 -137t34 -166.5v-574q0 -90 -34 -168t-92 -136t-137 -92t-167 -34h-287q-90 0 -168 34t-136 92t-92 136t-34 168zM287 430q0 -59 42 -101t101 -42h287q59 0 101 42t42 101v574 q0 59 -42 101t-101 42h-287q-59 0 -101 -42t-42 -101v-574zM367 1557l190 287h347l-193 -287h-344z" />
<glyph unicode="&#xd4;" d="M0 430v574q0 88 34 166.5t92 137t136 92.5t168 34h287q88 0 167 -34t137 -92.5t92 -137t34 -166.5v-574q0 -90 -34 -168t-92 -136t-137 -92t-167 -34h-287q-90 0 -168 34t-136 92t-92 136t-34 168zM107 1637l137 207h248l-138 -207h-247zM287 430q0 -59 42 -101t101 -42 h287q59 0 101 42t42 101v574q0 59 -42 101t-101 42h-287q-59 0 -101 -42t-42 -101v-574zM651 1844h248l137 -207h-247z" />
<glyph unicode="&#xd5;" d="M0 430v574q0 88 34 166.5t92 137t136 92.5t168 34h287q88 0 167 -34t137 -92.5t92 -137t34 -166.5v-574q0 -90 -34 -168t-92 -136t-137 -92t-167 -34h-287q-90 0 -168 34t-136 92t-92 136t-34 168zM145 1645v219q78 14 142.5 18.5t118.5 0t101.5 -13.5t90.5 -19t85 -18.5 t89 -10.5t103 3t128 22l2 -9v-210q-57 -12 -106 -16.5t-92 -4.5q-78 0 -139.5 10.5t-116.5 24.5q-43 10 -85 18t-90.5 10.5t-103.5 -3t-127 -21.5zM287 430q0 -59 42 -101t101 -42h287q59 0 101 42t42 101v574q0 59 -42 101t-101 42h-287q-59 0 -101 -42t-42 -101v-574z" />
<glyph unicode="&#xd6;" d="M0 430v574q0 88 34 166.5t92 137t136 92.5t168 34h287q88 0 167 -34t137 -92.5t92 -137t34 -166.5v-574q0 -90 -34 -168t-92 -136t-137 -92t-167 -34h-287q-90 0 -168 34t-136 92t-92 136t-34 168zM213 1700q0 59 41.5 101.5t101.5 42.5q59 0 101 -42.5t42 -101.5 t-42 -101t-101 -42t-101 42t-42 101zM287 430q0 -59 42 -101t101 -42h287q59 0 101 42t42 101v574q0 59 -42 101t-101 42h-287q-59 0 -101 -42t-42 -101v-574zM657 1700q0 59 42 101.5t101 42.5t101.5 -42.5t42.5 -101.5t-42 -101t-102 -42q-59 0 -101 42t-42 101z" />
<glyph unicode="&#xd7;" horiz-adv-x="1239" d="M0 356l360 361l-360 360l203 203l360 -360l361 360l202 -203l-360 -360l360 -361l-202 -202l-361 360l-360 -360z" />
<glyph unicode="&#xd9;" horiz-adv-x="1476" d="M0 1147v287h573v-287h-143v-717q0 -59 42 -101t101 -42h201q59 0 101.5 42t42.5 101v717h-144v287h574v-287h-144v-717q0 -90 -33.5 -168t-92 -136t-137.5 -92t-167 -34h-201q-90 0 -167.5 34t-136 92t-92.5 136t-34 168v717h-143zM278 1844h347l190 -287h-344z" />
<glyph unicode="&#xda;" horiz-adv-x="1476" d="M0 1147v287h573v-287h-143v-717q0 -59 42 -101t101 -42h201q59 0 101.5 42t42.5 101v717h-144v287h574v-287h-144v-717q0 -90 -33.5 -168t-92 -136t-137.5 -92t-167 -34h-201q-90 0 -167.5 34t-136 92t-92.5 136t-34 168v717h-143zM469 1557l190 287h347l-193 -287h-344z " />
<glyph unicode="&#xdb;" horiz-adv-x="1476" d="M0 1147v287h573v-287h-143v-717q0 -59 42 -101t101 -42h201q59 0 101.5 42t42.5 101v717h-144v287h574v-287h-144v-717q0 -90 -33.5 -168t-92 -136t-137.5 -92t-167 -34h-201q-90 0 -167.5 34t-136 92t-92.5 136t-34 168v717h-143zM211 1637l137 207h248l-138 -207h-247z M755 1844h248l137 -207h-247z" />
<glyph unicode="&#xdc;" horiz-adv-x="1476" d="M0 1147v287h573v-287h-143v-717q0 -59 42 -101t101 -42h201q59 0 101.5 42t42.5 101v717h-144v287h574v-287h-144v-717q0 -90 -33.5 -168t-92 -136t-137.5 -92t-167 -34h-201q-90 0 -167.5 34t-136 92t-92.5 136t-34 168v717h-143zM318 1700q0 59 41.5 101.5t101.5 42.5 q59 0 101 -42.5t42 -101.5t-42 -101t-101 -42t-101 42t-42 101zM762 1700q0 59 42 101.5t101 42.5t101.5 -42.5t42.5 -101.5t-42 -101t-102 -42q-59 0 -101 42t-42 101z" />
<glyph unicode="&#xdd;" horiz-adv-x="1464" d="M0 1147v287h573v-287h-108l201 -293l202 293h-108v287h573v-287h-116l-408 -590v-270h143v-287h-573v287h143v270l-405 590h-117zM463 1557l190 287h347l-193 -287h-344z" />
<glyph unicode="&#xe0;" horiz-adv-x="1531" d="M0 0v287h139l344 1147h439l344 -1147h139v-287h-574v287h136l-43 143h-443l-43 -143h135v-287h-573zM305 1844h347l190 -287h-344zM567 717h271l-129 430h-13z" />
<glyph unicode="&#xe1;" horiz-adv-x="1531" d="M0 0v287h139l344 1147h439l344 -1147h139v-287h-574v287h136l-43 143h-443l-43 -143h135v-287h-573zM496 1557l190 287h347l-193 -287h-344zM567 717h271l-129 430h-13z" />
<glyph unicode="&#xe2;" horiz-adv-x="1531" d="M0 0v287h139l344 1147h439l344 -1147h139v-287h-574v287h136l-43 143h-443l-43 -143h135v-287h-573zM301 1637l137 207h248l-138 -207h-247zM567 717h271l-129 430h-13zM845 1844h248l137 -207h-247z" />
<glyph unicode="&#xe3;" horiz-adv-x="1531" d="M0 0v287h139l344 1147h439l344 -1147h139v-287h-574v287h136l-43 143h-443l-43 -143h135v-287h-573zM270 1645v219q78 14 142.5 18.5t118.5 0t101.5 -13.5t90.5 -19t85 -18.5t89 -10.5t103 3t128 22l2 -9v-210q-57 -12 -106 -16.5t-92 -4.5q-78 0 -139.5 10.5 t-116.5 24.5q-43 10 -85 18t-90.5 10.5t-103.5 -3t-127 -21.5zM567 717h271l-129 430h-13z" />
<glyph unicode="&#xe4;" horiz-adv-x="1531" d="M0 0v287h139l344 1147h439l344 -1147h139v-287h-574v287h136l-43 143h-443l-43 -143h135v-287h-573zM338 1700q0 59 41.5 101.5t101.5 42.5q59 0 101 -42.5t42 -101.5t-42 -101t-101 -42t-101 42t-42 101zM567 717h271l-129 430h-13zM782 1700q0 59 42 101.5t101 42.5 t101.5 -42.5t42.5 -101.5t-42 -101t-102 -42q-59 0 -101 42t-42 101z" />
<glyph unicode="&#xe5;" horiz-adv-x="1531" d="M0 0h573v287h-135l43 143h443l43 -143h-136v-287h574v287h-139l-344 1147h-439l-344 -1147h-139v-287zM492 1698q0 45 16 84t46 67.5t69 46t84 17.5t83.5 -17.5t67.5 -46t46.5 -67.5t17.5 -84t-17.5 -84t-46.5 -68.5t-67.5 -46t-83.5 -16.5t-84 16.5t-69 46t-46 68.5 t-16 84zM567 717l129 430h13l129 -430h-271zM635 1698q0 -29 21.5 -50.5t50.5 -21.5t50 21.5t21 50.5t-21 50t-50 21t-50.5 -21.5t-21.5 -49.5z" />
<glyph unicode="&#xe6;" horiz-adv-x="1863" d="M0 0v287h139l344 1147h1266v-430h-287v143h-286v-287h286v-287h-286v-286h286v143h287v-430h-1004v287h144v143h-408l-43 -143h135v-287h-573zM567 717h322v430h-193z" />
<glyph unicode="&#xe7;" horiz-adv-x="1261" d="M0 430v574q0 88 34 166.5t92 137t136 92.5t168 34h287q88 0 167 -34t137 -92.5t92 -137t34 -166.5h-287q0 59 -42 101t-101 42h-287q-59 0 -101 -42t-42 -101v-574q0 -59 42 -101t101 -42h287q59 0 101 42t42 101h287q0 -90 -34 -168t-92 -136t-137 -92t-167 -34v-158 h-287v158q-90 0 -168 34t-136 92t-92 136t-34 168z" />
<glyph unicode="&#xe8;" horiz-adv-x="1132" d="M0 0v287h143v860h-143v287h1004v-430h-287v143h-287v-287h287v-287h-287v-286h287v143h287v-430h-1004zM106 1844h347l190 -287h-344z" />
<glyph unicode="&#xe9;" horiz-adv-x="1132" d="M0 0v287h143v860h-143v287h1004v-430h-287v143h-287v-287h287v-287h-287v-286h287v143h287v-430h-1004zM297 1557l190 287h347l-193 -287h-344z" />
<glyph unicode="&#xea;" horiz-adv-x="1132" d="M0 0v287h143v860h-143v287h1004v-430h-287v143h-287v-287h287v-287h-287v-286h287v143h287v-430h-1004zM74 1637l137 207h248l-138 -207h-247zM618 1844h248l137 -207h-247z" />
<glyph unicode="&#xeb;" horiz-adv-x="1132" d="M0 0v287h143v860h-143v287h1004v-430h-287v143h-287v-287h287v-287h-287v-286h287v143h287v-430h-1004zM130 1700q0 59 41.5 101.5t101.5 42.5q59 0 101 -42.5t42 -101.5t-42 -101t-101 -42t-101 42t-42 101zM574 1700q0 59 42 101.5t101 42.5t101.5 -42.5t42.5 -101.5 t-42 -101t-102 -42q-59 0 -101 42t-42 101z" />
<glyph unicode="&#xec;" horiz-adv-x="702" d="M-109 1844h347l190 -287h-344zM0 0v287h143v860h-143v287h573v-287h-143v-860h143v-287h-573z" />
<glyph unicode="&#xed;" horiz-adv-x="702" d="M0 0v287h143v860h-143v287h573v-287h-143v-860h143v-287h-573zM82 1557l190 287h347l-193 -287h-344z" />
<glyph unicode="&#xee;" horiz-adv-x="702" d="M-172 1637l137 207h248l-138 -207h-247zM0 0v287h143v860h-143v287h573v-287h-143v-860h143v-287h-573zM372 1844h248l137 -207h-247z" />
<glyph unicode="&#xef;" horiz-adv-x="702" d="M-71 1700q0 59 41.5 101.5t101.5 42.5q59 0 101 -42.5t42 -101.5t-42 -101t-101 -42t-101 42t-42 101zM0 0v287h143v860h-143v287h573v-287h-143v-860h143v-287h-573zM373 1700q0 59 42 101.5t101 42.5t101.5 -42.5t42.5 -101.5t-42 -101t-102 -42q-59 0 -101 42t-42 101 z" />
<glyph unicode="&#xf1;" horiz-adv-x="1548" d="M0 0v287h143v860h-143v287h430l559 -893v606h-143v287h573v-287h-143v-1147h-287l-559 893v-606h143v-287h-573zM279 1645v219q78 14 142.5 18.5t118.5 0t101.5 -13.5t90.5 -19t85 -18.5t89 -10.5t103 3t128 22l2 -9v-210q-57 -12 -106 -16.5t-92 -4.5q-78 0 -139.5 10.5 t-116.5 24.5q-43 10 -85 18t-90.5 10.5t-103.5 -3t-127 -21.5z" />
<glyph unicode="&#xf2;" d="M0 430v574q0 88 34 166.5t92 137t136 92.5t168 34h287q88 0 167 -34t137 -92.5t92 -137t34 -166.5v-574q0 -90 -34 -168t-92 -136t-137 -92t-167 -34h-287q-90 0 -168 34t-136 92t-92 136t-34 168zM176 1844h347l190 -287h-344zM287 430q0 -59 42 -101t101 -42h287 q59 0 101 42t42 101v574q0 59 -42 101t-101 42h-287q-59 0 -101 -42t-42 -101v-574z" />
<glyph unicode="&#xf3;" d="M0 430v574q0 88 34 166.5t92 137t136 92.5t168 34h287q88 0 167 -34t137 -92.5t92 -137t34 -166.5v-574q0 -90 -34 -168t-92 -136t-137 -92t-167 -34h-287q-90 0 -168 34t-136 92t-92 136t-34 168zM287 430q0 -59 42 -101t101 -42h287q59 0 101 42t42 101v574 q0 59 -42 101t-101 42h-287q-59 0 -101 -42t-42 -101v-574zM367 1557l190 287h347l-193 -287h-344z" />
<glyph unicode="&#xf4;" d="M0 430v574q0 88 34 166.5t92 137t136 92.5t168 34h287q88 0 167 -34t137 -92.5t92 -137t34 -166.5v-574q0 -90 -34 -168t-92 -136t-137 -92t-167 -34h-287q-90 0 -168 34t-136 92t-92 136t-34 168zM107 1637l137 207h248l-138 -207h-247zM287 430q0 -59 42 -101t101 -42 h287q59 0 101 42t42 101v574q0 59 -42 101t-101 42h-287q-59 0 -101 -42t-42 -101v-574zM651 1844h248l137 -207h-247z" />
<glyph unicode="&#xf5;" d="M0 430v574q0 88 34 166.5t92 137t136 92.5t168 34h287q88 0 167 -34t137 -92.5t92 -137t34 -166.5v-574q0 -90 -34 -168t-92 -136t-137 -92t-167 -34h-287q-90 0 -168 34t-136 92t-92 136t-34 168zM145 1645v219q78 14 142.5 18.5t118.5 0t101.5 -13.5t90.5 -19t85 -18.5 t89 -10.5t103 3t128 22l2 -9v-210q-57 -12 -106 -16.5t-92 -4.5q-78 0 -139.5 10.5t-116.5 24.5q-43 10 -85 18t-90.5 10.5t-103.5 -3t-127 -21.5zM287 430q0 -59 42 -101t101 -42h287q59 0 101 42t42 101v574q0 59 -42 101t-101 42h-287q-59 0 -101 -42t-42 -101v-574z" />
<glyph unicode="&#xf6;" d="M0 430v574q0 88 34 166.5t92 137t136 92.5t168 34h287q88 0 167 -34t137 -92.5t92 -137t34 -166.5v-574q0 -90 -34 -168t-92 -136t-137 -92t-167 -34h-287q-90 0 -168 34t-136 92t-92 136t-34 168zM213 1700q0 59 41.5 101.5t101.5 42.5q59 0 101 -42.5t42 -101.5 t-42 -101t-101 -42t-101 42t-42 101zM287 430q0 -59 42 -101t101 -42h287q59 0 101 42t42 101v574q0 59 -42 101t-101 42h-287q-59 0 -101 -42t-42 -101v-574zM657 1700q0 59 42 101.5t101 42.5t101.5 -42.5t42.5 -101.5t-42 -101t-102 -42q-59 0 -101 42t-42 101z" />
<glyph unicode="&#xf7;" d="M0 573v287h1147v-287h-1147zM430 143v287h287v-287h-287zM430 1004v286h287v-286h-287z" />
<glyph unicode="&#xf9;" horiz-adv-x="1476" d="M0 1147v287h573v-287h-143v-717q0 -59 42 -101t101 -42h201q59 0 101.5 42t42.5 101v717h-144v287h574v-287h-144v-717q0 -90 -33.5 -168t-92 -136t-137.5 -92t-167 -34h-201q-90 0 -167.5 34t-136 92t-92.5 136t-34 168v717h-143zM278 1844h347l190 -287h-344z" />
<glyph unicode="&#xfa;" horiz-adv-x="1476" d="M0 1147v287h573v-287h-143v-717q0 -59 42 -101t101 -42h201q59 0 101.5 42t42.5 101v717h-144v287h574v-287h-144v-717q0 -90 -33.5 -168t-92 -136t-137.5 -92t-167 -34h-201q-90 0 -167.5 34t-136 92t-92.5 136t-34 168v717h-143zM469 1557l190 287h347l-193 -287h-344z " />
<glyph unicode="&#xfb;" horiz-adv-x="1476" d="M0 1147v287h573v-287h-143v-717q0 -59 42 -101t101 -42h201q59 0 101.5 42t42.5 101v717h-144v287h574v-287h-144v-717q0 -90 -33.5 -168t-92 -136t-137.5 -92t-167 -34h-201q-90 0 -167.5 34t-136 92t-92.5 136t-34 168v717h-143zM211 1637l137 207h248l-138 -207h-247z M755 1844h248l137 -207h-247z" />
<glyph unicode="&#xfc;" horiz-adv-x="1476" d="M0 1147v287h573v-287h-143v-717q0 -59 42 -101t101 -42h201q59 0 101.5 42t42.5 101v717h-144v287h574v-287h-144v-717q0 -90 -33.5 -168t-92 -136t-137.5 -92t-167 -34h-201q-90 0 -167.5 34t-136 92t-92.5 136t-34 168v717h-143zM318 1700q0 59 41.5 101.5t101.5 42.5 q59 0 101 -42.5t42 -101.5t-42 -101t-101 -42t-101 42t-42 101zM762 1700q0 59 42 101.5t101 42.5t101.5 -42.5t42.5 -101.5t-42 -101t-102 -42q-59 0 -101 42t-42 101z" />
<glyph unicode="&#xfd;" horiz-adv-x="1464" d="M0 1147v287h573v-287h-108l201 -293l202 293h-108v287h573v-287h-116l-408 -590v-270h143v-287h-573v287h143v270l-405 590h-117zM463 1557l190 287h347l-193 -287h-344z" />
<glyph unicode="&#xff;" horiz-adv-x="1464" d="M0 1147v287h573v-287h-108l201 -293l202 293h-108v287h573v-287h-116l-408 -590v-270h143v-287h-573v287h143v270l-405 590h-117zM299 1700q0 59 41.5 101.5t101.5 42.5q59 0 101 -42.5t42 -101.5t-42 -101t-101 -42t-101 42t-42 101zM743 1700q0 59 42 101.5t101 42.5 t101.5 -42.5t42.5 -101.5t-42 -101t-102 -42q-59 0 -101 42t-42 101z" />
<glyph unicode="&#x152;" horiz-adv-x="1705" d="M0 430v574q0 88 34 166.5t92 137t136 92.5t168 34h1147v-430h-287v143h-286v-287h286v-287h-286v-286h286v143h287v-430h-1147q-90 0 -168 34t-136 92t-92 136t-34 168zM287 430q0 -59 42 -101t101 -42h287v860h-287q-59 0 -101 -42t-42 -101v-574z" />
<glyph unicode="&#x153;" horiz-adv-x="1705" d="M0 430v574q0 88 34 166.5t92 137t136 92.5t168 34h1147v-430h-287v143h-286v-287h286v-287h-286v-286h286v143h287v-430h-1147q-90 0 -168 34t-136 92t-92 136t-34 168zM287 430q0 -59 42 -101t101 -42h287v860h-287q-59 0 -101 -42t-42 -101v-574z" />
<glyph unicode="&#x178;" horiz-adv-x="1464" d="M0 1147v287h573v-287h-108l201 -293l202 293h-108v287h573v-287h-116l-408 -590v-270h143v-287h-573v287h143v270l-405 590h-117zM299 1700q0 59 41.5 101.5t101.5 42.5q59 0 101 -42.5t42 -101.5t-42 -101t-101 -42t-101 42t-42 101zM743 1700q0 59 42 101.5t101 42.5 t101.5 -42.5t42.5 -101.5t-42 -101t-102 -42q-59 0 -101 42t-42 101z" />
<glyph unicode="&#x2c6;" horiz-adv-x="944" d="M-102 1227l137 207h248l-138 -207h-247zM442 1434h248l137 -207h-247z" />
<glyph unicode="&#x2dc;" horiz-adv-x="989" d="M0 1235v219q78 14 142.5 18.5t118.5 0t101.5 -13.5t90.5 -19t85 -18.5t89 -10.5t103 3t128 22l2 -9v-210q-57 -12 -106 -16.5t-92 -4.5q-78 0 -139.5 10.5t-116.5 24.5q-43 10 -85 18t-90.5 10.5t-103.5 -3t-127 -21.5z" />
<glyph unicode="&#x2000;" horiz-adv-x="956" />
<glyph unicode="&#x2001;" horiz-adv-x="1913" />
<glyph unicode="&#x2002;" horiz-adv-x="956" />
<glyph unicode="&#x2003;" horiz-adv-x="1913" />
<glyph unicode="&#x2004;" horiz-adv-x="637" />
<glyph unicode="&#x2005;" horiz-adv-x="478" />
<glyph unicode="&#x2006;" horiz-adv-x="318" />
<glyph unicode="&#x2007;" horiz-adv-x="318" />
<glyph unicode="&#x2008;" horiz-adv-x="239" />
<glyph unicode="&#x2009;" horiz-adv-x="382" />
<glyph unicode="&#x200a;" horiz-adv-x="106" />
<glyph unicode="&#x2010;" horiz-adv-x="989" d="M0 573v287h860v-287h-860z" />
<glyph unicode="&#x2011;" horiz-adv-x="989" d="M0 573v287h860v-287h-860z" />
<glyph unicode="&#x2012;" horiz-adv-x="989" d="M0 573v287h860v-287h-860z" />
<glyph unicode="&#x2013;" d="M0 573v287h1147v-287h-1147z" />
<glyph unicode="&#x2014;" horiz-adv-x="1560" d="M0 573v287h1434v-287h-1434z" />
<glyph unicode="&#x2018;" horiz-adv-x="559" d="M0 1591h303l143 -430h-303z" />
<glyph unicode="&#x2019;" horiz-adv-x="561" d="M0 1161l143 430h303l-143 -430h-303z" />
<glyph unicode="&#x201a;" horiz-adv-x="1705" d="M0 -143l143 430h303l-143 -430h-303z" />
<glyph unicode="&#x201c;" horiz-adv-x="1003" d="M0 1591h303l143 -430h-303zM444 1591h304l143 -430h-303z" />
<glyph unicode="&#x201d;" horiz-adv-x="1003" d="M0 1161l143 430h303l-143 -430h-303zM444 1161l144 430h303l-143 -430h-304z" />
<glyph unicode="&#x201e;" horiz-adv-x="1003" d="M0 -143l143 430h303l-143 -430h-303zM444 -143l144 430h303l-143 -430h-304z" />
<glyph unicode="&#x2022;" horiz-adv-x="749" d="M0 731q0 63 24.5 120.5t67.5 100.5t99 67.5t122 24.5t123.5 -24.5t100.5 -67.5t67.5 -100t24.5 -121q0 -66 -24.5 -123t-67.5 -99t-100.5 -66.5t-123.5 -24.5t-122 24.5t-99 66.5t-67.5 99.5t-24.5 122.5z" />
<glyph unicode="&#x2026;" horiz-adv-x="1376" d="M0 172q0 72 50 122t122 50t122 -50t50 -122t-50 -122t-122 -50t-122 50t-50 122zM459 172q0 72 50 122t122 50t122 -50t50 -122t-50.5 -122t-121.5 -50q-72 0 -122 50t-50 122zM918 172q0 72 50 122t122 50t122 -50t50 -122t-50.5 -122t-121.5 -50q-72 0 -122 50t-50 122 z" />
<glyph unicode="&#x202f;" horiz-adv-x="382" />
<glyph unicode="&#x2039;" horiz-adv-x="819" d="M0 705l705 704v-405l-299 -299l299 -299v-406z" />
<glyph unicode="&#x203a;" horiz-adv-x="819" d="M0 0v406l299 299l-299 299v405l705 -704z" />
<glyph unicode="&#x205f;" horiz-adv-x="478" />
<glyph unicode="&#x20ac;" horiz-adv-x="1402" d="M0 430v215h143v143h-143v216h143q0 88 34 166.5t92.5 137t136 92.5t167.5 34h287q88 0 167 -34t137.5 -92.5t92 -137t33.5 -166.5h-286q0 59 -42 101t-102 42h-287q-59 0 -101 -42t-42 -101h430v-216h-430v-143h430v-215h-430q0 -59 42 -101t101 -42h287q59 0 101.5 42 t42.5 101h286q0 -90 -33.5 -168t-92 -136t-137.5 -92t-167 -34h-287q-90 0 -167.5 34t-136 92t-92.5 136t-34 168h-143z" />
<glyph unicode="&#x2122;" horiz-adv-x="716" d="M0 1231v92h246v-92h-62v31h-30v-185h30v-61h-123v61h31v185h-31v-31h-61zM276 1016v61h31v185h-31v61h93l61 -96l59 96h95v-61h-31v-185h31v-61h-123v61h31v133l-62 -98l-61 98v-133h30v-61h-123z" />
<glyph unicode="&#x25fc;" horiz-adv-x="1433" d="M0 0v1434h1434v-1434h-1434z" />
</font>
</defs>
</svg>
